<?xml version="1.0" encoding="UTF-8"?>
<svg version="1.1" xmlns="http://www.w3.org/2000/svg" width="24" height="24">
<path d="M0 0 C7.92 0 15.84 0 24 0 C24 7.92 24 15.84 24 24 C16.08 24 8.16 24 0 24 C0 16.08 0 8.16 0 0 Z " fill="#191B27" transform="translate(0,0)"/>
<path d="M0 0 C0.99 0.33 1.98 0.66 3 1 C3.73046875 2.84765625 3.73046875 2.84765625 4.1875 5.0625 C4.34605469 5.79597656 4.50460937 6.52945312 4.66796875 7.28515625 C4.77753906 7.85105469 4.88710937 8.41695312 5 9 C3.35 8.67 1.7 8.34 0 8 C-0.33 9.65 -0.66 11.3 -1 13 C-2.32 12.67 -3.64 12.34 -5 12 C-3.41037341 7.96479403 -1.71767682 3.98188718 0 0 Z " fill="#198DCB" transform="translate(11,6)"/>
<path d="M0 0 C0.78375 0.04125 1.5675 0.0825 2.375 0.125 C2.375 3.81918201 1.09320705 5.90336178 -0.625 9.125 C-1.945 8.795 -3.265 8.465 -4.625 8.125 C-4.75 5.25 -4.75 5.25 -4.625 2.125 C-2.625 0.125 -2.625 0.125 0 0 Z " fill="#D812BE" transform="translate(6.625,9.875)"/>
<path d="M0 0 C2.5625 0.1875 2.5625 0.1875 4.5625 2.1875 C4.6875 5.3125 4.6875 5.3125 4.5625 8.1875 C3.2425 8.5175 1.9225 8.8475 0.5625 9.1875 C0.459375 8.424375 0.35625 7.66125 0.25 6.875 C-0.48114039 4.01690576 -1.20701913 3.03007115 -3.4375 1.1875 C-2.4375 0.1875 -2.4375 0.1875 0 0 Z " fill="#DC9714" transform="translate(17.4375,9.8125)"/>
<path d="M0 0 C0.99 0.33 1.98 0.66 3 1 C2.34 2.98 1.68 4.96 1 7 C-0.32 6.67 -1.64 6.34 -3 6 C-1.125 1.125 -1.125 1.125 0 0 Z " fill="#2F82D9" transform="translate(9,12)"/>
<path d="M0 0 C1.65 0 3.3 0 5 0 C5 3.10551666 4.4606285 4.35261084 3 7 C2.34 7 1.68 7 1 7 C0.67 4.69 0.34 2.38 0 0 Z " fill="#99118E" transform="translate(4,10)"/>
<path d="M0 0 C0.99 0.66 1.98 1.32 3 2 C2.67 2.99 2.34 3.98 2 5 C0.68 4.67 -0.64 4.34 -2 4 C-1.34 2.68 -0.68 1.36 0 0 Z " fill="#E9B819" transform="translate(18,4)"/>
<path d="M0 0 C0.99 0.66 1.98 1.32 3 2 C2.67 2.99 2.34 3.98 2 5 C0.68 4.67 -0.64 4.34 -2 4 C-1.34 2.68 -0.68 1.36 0 0 Z " fill="#E511CD" transform="translate(5,4)"/>
</svg>
